<?xml version="1.0" encoding="UTF-8"?>
<!DOCTYPE svg PUBLIC "-//W3C//DTD SVG 1.1//EN" "http://www.w3.org/Graphics/SVG/1.1/DTD/svg11.dtd">
<!-- Creator: CorelDRAW X6 -->
<svg xmlns="http://www.w3.org/2000/svg" xml:space="preserve" width="125.408mm" height="121.51mm" version="1.1" style="shape-rendering:geometricPrecision; text-rendering:geometricPrecision; image-rendering:optimizeQuality; fill-rule:evenodd; clip-rule:evenodd"
viewBox="0 0 5377 5210"
 xmlns:xlink="http://www.w3.org/1999/xlink">
 <defs>
  <style type="text/css">
   <![CDATA[
    .fil0 {fill:#40CC18}
   ]]>
  </style>
 </defs>
 <g id="Layer_x0020_1">
  <metadata id="CorelCorpID_0Corel-Layer"/>
  <path class="fil0" d="M4 854c0,0 -79,-817 499,-839 579,-23 3301,-11 3301,-11 0,0 635,-23 658,488 23,510 11,4072 11,4072 0,0 -23,647 -556,647 -533,0 -3335,0 -3335,0 0,0 -567,-38 -573,-506 -6,-468 -6,-3850 -6,-3850zm5090 3240c4,-16 -15,-24 -59,-24 -44,0 -68,8 -72,24l-97 370c-4,16 15,24 59,24 44,0 68,-8 72,-24l97 -370zm112 376c-19,69 -98,103 -237,103l-134 0c-139,0 -199,-34 -180,-103l100 -383c17,-69 96,-103 236,-103l133 0c139,0 200,35 181,105l-99 381zm-181 -651l56 0 -22 85 -321 0 22 -85 56 0 110 -419 -81 0 -28 105 -110 0 50 -191 591 0 -50 191 -111 0 28 -105 -79 0 -110 419zm-253 -720c-7,33 23,49 90,49 69,0 107,-13 113,-39l8 -29c9,-34 -14,-59 -68,-75l-53 -13c-107,-28 -153,-74 -136,-139l27 -104c19,-69 98,-103 237,-103 100,0 157,16 171,49l13 -49 111 0 -50 191 -110 0 14 -52c9,-35 -21,-52 -90,-52 -67,0 -103,11 -109,32l-9 34c-9,32 15,55 70,68l70 13c94,24 134,66 120,127l-32 124c-19,69 -98,103 -237,103 -100,0 -157,-16 -171,-49l-13 49 -111 0 51 -194 110 0 -16 59zm264 -789l-66 0 -45 170 209 0 29 -110 110 0 -51 194 -585 0 22 -85 56 0 110 -419 -56 0 22 -85 585 0 -50 191 -110 0 28 -105 -209 0 -45 169 66 0 23 -86 85 0 -65 248 -85 0 22 -82zm-1 -918l-45 169 77 0c18,0 29,-7 33,-21l33 -124c4,-16 -3,-24 -21,-24l-77 0zm-110 419l52 0 -22 85 -318 0 22 -85 56 0 110 -419 -56 0 22 -85 438 0c97,0 138,25 125,76l-39 150c-10,40 -46,63 -108,68 57,6 81,29 72,68l-36 140c-2,8 2,13 13,13 12,0 20,-4 22,-13l35 -135 64 0 -38 147c-13,49 -53,74 -119,74l-112 0c-67,0 -94,-24 -82,-73l42 -160c4,-14 -4,-21 -22,-21l-77 0 -45 170zm-152 -720c-7,33 23,49 90,49 69,0 107,-13 113,-39l8 -29c9,-34 -14,-59 -68,-75l-53 -13c-107,-28 -153,-74 -136,-139l27 -104c19,-69 98,-103 237,-103 100,0 157,16 171,49l13 -49 111 0 -50 191 -110 0 14 -52c9,-35 -21,-52 -90,-52 -67,0 -103,11 -109,32l-9 34c-9,32 15,55 70,68l70 13c94,24 134,66 120,127l-32 124c-19,69 -98,103 -237,103 -100,0 -157,-16 -171,-49l-13 49 -111 0 51 -194 110 0 -16 59zm-1082 818c-5,-390 -157,-689 -454,-900 -297,-211 -600,-316 -911,-316 -148,0 -267,40 -358,121 -92,81 -137,185 -137,313 0,98 29,179 87,242 58,63 170,140 335,231 584,324 969,557 1158,699 187,142 318,292 391,451 12,25 22,51 32,78l0 -919 -142 0zm142 1878c-42,119 -102,228 -180,325 -163,204 -381,355 -655,453l835 0 0 -778zm-2371 778c-117,-56 -231,-128 -342,-214l-273 214 616 0zm-817 -1466l94 0 0 17c0,274 51,505 155,692 103,188 264,357 483,505 219,149 443,224 671,224 206,0 372,-43 499,-129 127,-86 190,-197 190,-335 0,-81 -26,-156 -78,-226 -52,-71 -123,-134 -211,-192 -89,-58 -293,-170 -613,-338 -740,-390 -1109,-858 -1109,-1403 0,-394 145,-721 434,-984 136,-124 288,-218 455,-284l-971 0 0 2452zm2247 -2452c121,47 255,117 402,208l275 -208 -677 0z"/>
 </g>
</svg>
